<?xml version="1.0" encoding="UTF-8"?>
<svg version="1.1" xmlns="http://www.w3.org/2000/svg" width="512" height="512">
<path d="M0 0 C2.28790158 1.665133 3.94159464 3.5141109 5.796875 5.6484375 C20.38403323 21.21841845 43.85837797 28.926294 64.5546875 30.22265625 C89.54381321 30.83021427 112.13715087 22.38089529 131 6 C131.59039062 5.39285156 132.18078125 4.78570312 132.7890625 4.16015625 C136.03082821 0.89534481 138.3431526 -0.43373954 143 -0.6875 C159.24007286 0.27305452 172.69909349 8.90907655 184 20 C184.639375 20.61488281 185.27875 21.22976562 185.9375 21.86328125 C192.58231314 28.78990566 197.86582841 38.43224477 199 48 C198.06800781 48.52207031 197.13601563 49.04414063 196.17578125 49.58203125 C186.92129103 54.87904137 178.83332949 60.77587307 171 68 C170.05382812 68.86367187 169.10765625 69.72734375 168.1328125 70.6171875 C143.56457123 94.0718541 128.87161486 127.89408609 127.796875 161.8046875 C127.54660348 177.93611281 129.57796567 192.61956037 134.1171875 208.09375 C134.3948999 209.05249023 134.6726123 210.01123047 134.95874023 210.99902344 C135.63557811 213.33375023 136.31604505 215.66735026 137 218 C113.14756714 218.07010325 89.29514974 218.12299467 65.44263458 218.15543652 C54.3673203 218.17090068 43.29207005 218.19198165 32.21679688 218.22631836 C22.56278805 218.25623443 12.9088256 218.27557828 3.25477171 218.28226548 C-1.85624719 218.28617398 -6.9671334 218.29535025 -12.07810974 218.31719017 C-16.89121345 218.33759012 -21.70413011 218.34382668 -26.51727295 218.33932304 C-28.28128578 218.34014667 -30.04530502 218.34609137 -31.8092804 218.35761642 C-34.2239518 218.37261568 -36.63792359 218.36892688 -39.0526123 218.36076355 C-39.74524406 218.36950207 -40.43787581 218.3782406 -41.15149641 218.38724393 C-47.39508943 218.33046906 -52.48548581 216.54299735 -57.75 213.3125 C-64.82113412 206.04494549 -64.58300838 198.26237893 -64.53344727 188.66796875 C-64.54051484 187.22477846 -64.54926337 185.78159558 -64.55955505 184.33842468 C-64.58197949 180.43493367 -64.57912359 176.53184953 -64.57023358 172.62831879 C-64.56510276 169.35622062 -64.57243417 166.08419752 -64.57970566 162.81210709 C-64.59668676 155.07991158 -64.59316178 147.34791344 -64.57641602 139.61572266 C-64.55954284 131.67678167 -64.57526666 123.7383925 -64.6076389 115.79951191 C-64.63447691 108.9549548 -64.64157138 102.11056793 -64.63312382 95.26596355 C-64.62823 91.19096841 -64.63021343 87.11630399 -64.65091133 83.04135132 C-64.6694901 79.19969108 -64.66304483 75.35881119 -64.63871193 71.51719093 C-64.63377104 70.12098374 -64.63701473 68.72471481 -64.64986038 67.32855797 C-64.81341868 47.99502086 -57.97466865 31.4945322 -44.59375 17.46875 C-33.71626029 7.11547667 -15.6197877 -3.34051507 0 0 Z " fill="#000000" transform="translate(96,182)"/>
<path d="M0 0 C22.21264808 19.56521037 37.49764371 46.69550539 40.6875 76.3671875 C42.485269 112.67274172 34.75497987 146.53851303 10.12109375 174.12109375 C-12.35899648 198.72696083 -42.96373207 210.95513572 -75.94921875 212.65234375 C-108.82300167 213.66118409 -139.73681056 201.99702254 -164.3125 180.3671875 C-164.92222656 179.84125 -165.53195312 179.3153125 -166.16015625 178.7734375 C-186.00841737 160.37977708 -196.35439965 133.53791069 -200.3125 107.3671875 C-200.44398438 106.57570313 -200.57546875 105.78421875 -200.7109375 104.96875 C-204.91651958 75.30234671 -196.1746371 43.68668285 -178.35009766 19.77514648 C-176.39457166 17.25713794 -174.36528404 14.80620965 -172.3125 12.3671875 C-171.75820313 11.67367187 -171.20390625 10.98015625 -170.6328125 10.265625 C-166.96908738 5.77013526 -162.79880929 2.02807703 -158.3125 -1.6328125 C-157.06919922 -2.66728516 -157.06919922 -2.66728516 -155.80078125 -3.72265625 C-109.71534157 -40.2953413 -44.35516308 -37.42466885 0 0 Z M-49.42138672 51.98706055 C-53.52245799 56.6781486 -57.88981284 61.07084143 -62.30859375 65.4609375 C-63.14213882 66.29306763 -63.9756839 67.12519775 -64.83448792 67.98254395 C-67.47063262 70.61313685 -70.11025105 73.24021191 -72.75 75.8671875 C-74.54905979 77.66122605 -76.3478902 79.45549465 -78.14648438 81.25 C-82.53250812 85.62505875 -86.92138142 89.99724262 -91.3125 94.3671875 C-94.18358856 93.06763475 -96.214204 91.70380568 -98.40942383 89.44970703 C-98.98715042 88.8621463 -99.56487701 88.27458557 -100.16011047 87.66921997 C-100.77371933 87.03587738 -101.38732819 86.40253479 -102.01953125 85.75 C-103.34167252 84.40742961 -104.66394221 83.06498568 -105.98632812 81.72265625 C-108.05577866 79.60981124 -110.12268936 77.49455861 -112.18676758 75.37646484 C-114.18694431 73.32773665 -116.19646173 71.28852259 -118.20703125 69.25 C-118.81456741 68.62070587 -119.42210358 67.99141174 -120.04804993 67.3430481 C-124.50416581 62.83622288 -128.92974101 59.00009079 -135.33984375 57.80078125 C-143.71821952 57.81202739 -148.29000032 59.48806405 -154.28515625 65.26953125 C-158.43316816 69.70713742 -161.14901676 73.39590717 -161.40625 79.64453125 C-160.94638834 92.07995685 -151.03121698 100.08773608 -142.74609375 108.296875 C-141.62270305 109.41974589 -140.4998332 110.5431381 -139.37745667 111.66702271 C-137.03798338 114.00640684 -134.69348344 116.34058996 -132.3449707 118.67089844 C-129.34163771 121.65145415 -126.34960385 124.64305694 -123.36100674 127.63838005 C-121.04936674 129.95336582 -118.73275945 132.26332722 -116.41453743 134.57172012 C-115.30926167 135.67316104 -114.20531389 136.7759363 -113.10275078 137.88009262 C-111.56222587 139.42098989 -110.01534139 140.9552077 -108.46655273 142.48779297 C-107.5897435 143.35999481 -106.71293427 144.23219666 -105.80955505 145.13082886 C-101.64666249 148.85910899 -97.96942039 151.14961364 -92.3125 151.3671875 C-84.69367918 149.93561195 -80.19925172 146.1066542 -74.90283203 140.6862793 C-74.11629745 139.90543976 -73.32976288 139.12460022 -72.51939392 138.32009888 C-69.93816709 135.74993465 -67.3790948 133.15890111 -64.8203125 130.56640625 C-63.0254185 128.76793324 -61.22941112 126.97057075 -59.43234253 125.17427063 C-55.67597428 121.4132184 -51.92951088 117.64270182 -48.19140625 113.86352539 C-43.87796917 109.50286934 -39.54900868 105.15813582 -35.21080315 100.82212895 C-31.02434038 96.63750096 -26.84669057 92.44417417 -22.67342758 88.24637794 C-20.90260172 86.46601467 -19.12996109 84.68745452 -17.35547256 82.91074181 C-14.87793846 80.42669598 -12.41053607 77.93301666 -9.94580078 75.4362793 C-9.21331619 74.70515427 -8.4808316 73.97402924 -7.72615051 73.2207489 C-2.20670141 67.59631264 1.41115993 62.51921945 1.6875 54.3671875 C0.4816338 47.26027396 -3.02570855 42.15563385 -8.3125 37.3671875 C-25.51897494 25.1675147 -38.33876793 39.07175585 -49.42138672 51.98706055 Z " fill="#000000" transform="translate(439.3125,257.6328125)"/>
<path d="M0 0 C1.051875 0.78375 2.10375 1.5675 3.1875 2.375 C18.82301855 16.96815065 26.46439188 36.25278422 28.1875 57.2890625 C28.85888372 79.69649428 20.05478548 99.7284252 5 116 C-11.3927493 131.85402045 -31.94894665 138.57606178 -54.52734375 138.20703125 C-72.51451734 137.57827095 -88.4722829 130.64886751 -102 119 C-102.79921875 118.31292969 -103.5984375 117.62585938 -104.421875 116.91796875 C-113.99686176 108.0198345 -120.84640274 96.33048285 -125 84 C-125.31839844 83.05511719 -125.63679688 82.11023438 -125.96484375 81.13671875 C-131.74716299 60.59216515 -128.16749599 39.10893211 -118.140625 20.6328125 C-115.27901226 15.62888532 -111.88757791 11.24867704 -108 7 C-107.40960938 6.31808594 -106.81921875 5.63617188 -106.2109375 4.93359375 C-78.57726488 -25.11067584 -30.56162728 -24.78828694 0 0 Z " fill="#000000" transform="translate(215,60)"/>
</svg>
