<?xml version="1.0" encoding="UTF-8" standalone="no"?> <svg width="64" height="64" viewBox="0 0 64 64" fill="none" xmlns="http://www.w3.org/2000/svg">
<path d="M28.136 27.3789L32.379 23.1359L15.745 6.4999C15.1821 5.93697 14.4186 5.62073 13.6225 5.62073C12.8264 5.62073 12.0629 5.93697 11.5 6.4999C10.9371 7.06282 10.6208 7.8263 10.6208 8.6224C10.6208 9.41849 10.9371 10.182 11.5 10.7449L28.136 27.3789Z" fill="black"/>
<path d="M33.405 36.2509L60.828 8.82795C61.5779 8.07783 61.9992 7.0606 61.9992 5.99995C61.9992 4.93929 61.5779 3.92206 60.828 3.17195C60.0664 2.44405 59.0535 2.03784 58 2.03784C56.9465 2.03784 55.9336 2.44405 55.172 3.17195L33.793 24.5509L29.55 28.7929L27.75 30.5929L27.043 29.8859C26.393 29.2359 25.6213 28.7202 24.772 28.3684C23.9226 28.0165 23.0123 27.8354 22.093 27.8354C21.1737 27.8354 20.2634 28.0165 19.4141 28.3684C18.5648 28.7202 17.793 29.2359 17.143 29.8859L13.186 33.8429C10.4128 36.6102 6.78317 38.3552 2.89003 38.7929C2.70273 38.8134 2.52502 38.8863 2.37735 39.0033C2.22968 39.1203 2.11807 39.2766 2.05536 39.4542C1.99266 39.6319 1.98142 39.8237 2.02293 40.0074C2.06445 40.1912 2.15704 40.3595 2.29003 40.4929L15.728 53.9289C15.8679 54.0681 16.0456 54.163 16.239 54.2019C17.4785 54.4523 18.7606 54.3936 19.972 54.0309C19.6217 55.1856 19.5245 56.4023 19.687 57.5979C19.7162 57.8152 19.816 58.0169 19.971 58.1719L23.506 61.7069C23.6395 61.8399 23.8078 61.9325 23.9915 61.974C24.1753 62.0156 24.3671 62.0043 24.5447 61.9416C24.7224 61.8789 24.8787 61.7673 24.9957 61.6196C25.1127 61.472 25.1856 61.2942 25.206 61.1069C25.6428 57.2128 27.3871 53.5817 30.154 50.8069L34.112 46.8489C35.423 45.5351 36.1592 43.7549 36.1592 41.8989C36.1592 40.043 35.423 38.2628 34.112 36.9489L33.405 36.2509ZM56.586 4.58595C56.9669 4.22211 57.4733 4.01909 58 4.01909C58.5267 4.01909 59.0332 4.22211 59.414 4.58595C59.789 4.961 59.9996 5.46962 59.9996 5.99995C59.9996 6.53027 59.789 7.03889 59.414 7.41395L31.991 34.8369L29.163 32.0089L56.586 4.58595ZM28.741 49.3999C26.1356 52.0111 24.3314 55.3129 23.541 58.9159L21.631 57.0059C21.4981 55.4312 21.9546 53.8632 22.912 52.6059L23.593 51.7059C23.7379 51.5038 23.8022 51.255 23.7735 51.008C23.7448 50.7609 23.6251 50.5335 23.4377 50.37C23.2503 50.2065 23.0088 50.1187 22.7602 50.1236C22.5115 50.1286 22.2737 50.2261 22.093 50.3969L21.815 50.6749C21.1837 51.3101 20.4116 51.7876 19.5614 52.0688C18.7111 52.3499 17.8065 52.4267 16.921 52.2929L14.514 49.8859C16.5818 49.4095 18.4737 48.3605 19.973 46.8589L22.8 44.0289C22.9822 43.8403 23.083 43.5877 23.0807 43.3255C23.0784 43.0633 22.9733 42.8125 22.7878 42.6271C22.6024 42.4417 22.3516 42.3366 22.0894 42.3343C21.8272 42.332 21.5746 42.4328 21.386 42.6149L18.558 45.4429C17.0029 46.9962 14.9483 47.9491 12.758 48.1329L10.032 45.3999C12.1883 45.1266 14.193 44.1457 15.732 42.6109C15.9191 42.4229 16.0239 42.1682 16.0232 41.903C16.0226 41.6377 15.9166 41.3836 15.7285 41.1964C15.5405 41.0093 15.2858 40.9046 15.0206 40.9052C14.7553 40.9059 14.5011 41.0119 14.314 41.1999C13.5265 41.9889 12.5792 42.6002 11.5359 42.9927C10.4926 43.3853 9.3773 43.5501 8.26503 43.4759L8.09303 43.4649L5.08303 40.4549C8.68637 39.6655 11.9884 37.8611 14.599 35.2549L17.849 32.0049L20.678 34.8329L18.557 36.9539C18.4615 37.0462 18.3853 37.1565 18.3329 37.2785C18.2805 37.4005 18.2529 37.5318 18.2518 37.6645C18.2506 37.7973 18.2759 37.929 18.3262 38.0519C18.3765 38.1748 18.4507 38.2864 18.5446 38.3803C18.6385 38.4742 18.7502 38.5485 18.8731 38.5988C18.996 38.6491 19.1276 38.6744 19.2604 38.6732C19.3932 38.672 19.5244 38.6445 19.6464 38.592C19.7684 38.5396 19.8788 38.4635 19.971 38.3679L22.092 36.2469L28.456 42.6109L26.334 44.7319C26.1465 44.9196 26.0412 45.174 26.0413 45.4393C26.0414 45.7046 26.1469 45.9589 26.3345 46.1464C26.5222 46.334 26.7766 46.4392 27.0419 46.4391C27.3071 46.4391 27.5615 46.3336 27.749 46.1459L29.87 44.0249L31.992 46.1459L28.741 49.3999Z" fill="black"/>
<path d="M56.05 32.666C55.1124 31.7283 53.8406 31.2015 52.5145 31.2015C51.1885 31.2015 49.9167 31.7283 48.979 32.666L45.444 36.2L40.864 31.62L36.621 35.862L41.201 40.443L37.666 43.978C36.7284 44.9156 36.2016 46.1874 36.2016 47.5135C36.2016 48.8395 36.7284 50.1113 37.666 51.049L43.322 56.706C43.5096 56.8934 43.7639 56.9988 44.029 56.9988C44.2942 56.9988 44.5485 56.8934 44.736 56.706L61.707 39.736C61.8945 39.5484 61.9998 39.2941 61.9998 39.029C61.9998 38.7638 61.8945 38.5095 61.707 38.322L56.05 32.666ZM58.172 40.444L56.05 38.322C55.8614 38.1398 55.6088 38.039 55.3466 38.0413C55.0844 38.0436 54.8336 38.1487 54.6482 38.3342C54.4628 38.5196 54.3576 38.7704 54.3554 39.0326C54.3531 39.2948 54.4539 39.5474 54.636 39.736L56.758 41.858L55.343 43.272L53.222 41.15C53.0334 40.9678 52.7808 40.867 52.5186 40.8693C52.2564 40.8716 52.0056 40.9767 51.8202 41.1622C51.6348 41.3476 51.5296 41.5984 51.5274 41.8606C51.5251 42.1228 51.6259 42.3754 51.808 42.564L53.929 44.686L52.515 46.1L50.394 43.978C50.3011 43.8851 50.1908 43.8114 50.0694 43.7611C49.948 43.7108 49.8179 43.6849 49.6865 43.6849C49.5551 43.6849 49.425 43.7108 49.3036 43.7611C49.1822 43.8114 49.0719 43.8851 48.979 43.978C48.8861 44.0709 48.8124 44.1812 48.7621 44.3026C48.7119 44.424 48.686 44.5541 48.686 44.6855C48.686 44.8169 48.7119 44.947 48.7621 45.0684C48.8124 45.1898 48.8861 45.3001 48.979 45.393L51.1 47.515L49.685 48.929L47.564 46.808C47.3754 46.6258 47.1228 46.525 46.8606 46.5273C46.5984 46.5296 46.3476 46.6347 46.1622 46.8202C45.9768 47.0056 45.8716 47.2564 45.8694 47.5186C45.8671 47.7808 45.9679 48.0334 46.15 48.222L48.271 50.343L46.857 51.758L44.735 49.636C44.5464 49.4538 44.2938 49.353 44.0316 49.3553C43.7694 49.3576 43.5186 49.4627 43.3332 49.6482C43.1478 49.8336 43.0426 50.0844 43.0404 50.3466C43.0381 50.6088 43.1389 50.8614 43.321 51.05L45.443 53.172L44.028 54.586L39.786 50.343L55.343 34.787L59.586 39.029L58.172 40.444Z" fill="black"/>
</svg>
