<?xml version="1.0" encoding="utf-8"?>
<!-- Generator: Adobe Illustrator 23.0.2, SVG Export Plug-In . SVG Version: 6.00 Build 0)  -->
<svg version="1.1" id="Layer_1" xmlns="http://www.w3.org/2000/svg" xmlns:xlink="http://www.w3.org/1999/xlink" x="0px" y="0px"
	 viewBox="0 0 331.6851 257.2604" enable-background="new 0 0 331.6851 257.2604" xml:space="preserve">
<g>
	<path d="M76.3945,132.1266c-8.249-11.9072-12.9619-27.8672-16.583-40.7949c-6.9824,2.8115-12.8379,3.8486-15.5986,4.2099
		l-0.1445,0.0196c-0.4551,0.0547-0.8145,0.0742-1.1709,0.0742c-5.1162,0-9.3877-3.8398-9.9366-8.9307
		c-0.5888-5.4638,3.376-10.4033,8.8389-11.0117c0.168-0.0205,0.3486-0.0469,0.5938-0.0849c0.7207-0.1172,1.498-0.2676,2.3047-0.4483
		c1.7832-0.4004,4.5283-1.1406,7.622-2.376c-3.751-4.3769-8.8369-6.9531-13.8584-5.7851c-2.7754,0.6445-5.583,2.1084-8.041,4.3076
		c-3.2012,2.0596-8.7617,6.251-14.3086,13.3799c-8.125,10.3906-15.9629,27.1748-15.9219,51.417
		c0,5.7734,0.4346,11.9687,1.3926,18.6113c0.5733,3.9844,3.9922,6.8574,7.9043,6.8584c0.3809,0,0.7656-0.0273,1.1524-0.084
		c4.373-0.6289,7.4082-4.6846,6.7783-9.0576c-0.8545-5.9277-1.2276-11.3584-1.2276-16.3281
		c0.0293-15.8018,3.7149-26.9805,8.1582-34.9248c3.1553,16.9531,8.0821,28.5117,19.0342,44.9218
		c5.3955,6.8877,10.9229,9.0889,16.1367,8.9961c2.1778,5.7354,4.6846,14.9922,4.6778,27.2393
		c-0.0088,12.376-2.5088,27.9102-10.7627,46.4619c-2.8106,6.3057,0.0234,13.6963,6.3301,16.5059
		c1.6533,0.7363,3.3808,1.0849,5.08,1.0849c4.7852,0,9.3536-2.7636,11.4258-7.416c9.6367-21.6084,12.9375-40.8281,12.9287-56.6367
		c-0.0127-21.7051-6.1015-36.7422-9.5976-43.5918C78.9756,136.8991,77.9268,134.7311,76.3945,132.1266z"/>
	<path d="M77.1553,20.2604c1.5898-2.1455,3.9219-3.542,6.5654-3.9336c0.4893-0.0723,0.9844-0.1103,1.4736-0.1103
		c3.8965,0,7.3702,2.3144,9.002,5.7001c5.9131-3.8017,12.5303-8.0546,12.5303-8.0546c0.8134-0.5235,1.0615-1.5909,0.5508-2.3848
		l-6.8809-10.7051c-0.5107-0.7949-1.584-1.0097-2.3975-0.4863c0,0-16.1474,10.3789-20.5332,13.1982
		c-4.3877,2.8194-6.4199,6.4912-10.123,10.8994c-1.541,1.835-5.377,4.8301-8.3379,7.0313
		c-4.5195-9.4189-15.169-14.6963-25.7051-12.0732c-12.0556,2.999-19.3974,15.2041-16.3994,27.2587
		c3,12.0557,15.2061,19.3975,27.2617,16.3965c11.583-2.8808,18.8076-14.2597,16.6973-25.8408
		c3.2607-1.831,8.5635-4.6807,11.2129-5.4131c1.2695-0.3525,2.4648-0.6396,3.6103-0.9092c-0.1074-1.039-0.2314-2.0859-0.3886-3.1484
		C74.9014,25.0426,75.5615,22.4059,77.1553,20.2604z"/>
	<path d="M42.7061,77.5827c-0.2696,0.0429-0.4668,0.0703-0.5801,0.0849c-0.0371,0.0049-0.0664,0.0088-0.086,0.0108
		c-0.0195,0.0019-0.0195,0.0019-0.0195,0.0019v0.001c-4.3799,0.4863-7.5449,4.4238-7.0722,8.8086
		c0.4433,4.1025,3.913,7.1435,7.9472,7.1435c0.2862,0,0.5742-0.0146,0.8653-0.0459v-0.0019
		c0.6562-0.1045,12.416-1.3115,24.8964-8.9072c6.2159-3.8076,12.6309-9.3223,17.462-17.167
		c4.8408-7.8281,7.9462-17.919,7.9277-30.1309c0-3.8916-0.3057-7.998-0.9473-12.334c-0.6474-4.3701-4.7158-7.3886-9.0859-6.7422
		c-4.3721,0.6475-7.3897,4.7159-6.7432,9.087c0.5362,3.6162,0.7754,6.9404,0.7754,9.9892
		c-0.0185,9.5889-2.3047,16.4336-5.5527,21.7403c-4.8516,7.9101-12.3711,12.6289-18.9805,15.3417
		c-3.2793,1.3487-6.2705,2.1749-8.3799,2.6485C44.0791,77.3473,43.2442,77.4958,42.7061,77.5827z"/>
	<path d="M228.5772,39.7174c0.4902,0,0.9863,0.0362,1.4765,0.1084c5.4522,0.8125,9.2305,5.9063,8.4248,11.3584
		c-0.1758,1.1836-0.3105,2.3477-0.4248,3.501c0.6944,0.1699,1.4072,0.3525,2.1455,0.5576
		c3.0679,0.8487,9.6851,4.5322,12.5816,6.1905c-1.6582,11.3085,5.5058,22.247,16.8281,25.0644
		c12.0566,3.001,24.2617-4.3408,27.2617-16.3965c2.9981-12.0547-4.3437-24.2607-16.3984-27.2588
		c-10.8418-2.6982-21.7988,2.9688-26.0801,12.9034c-3.0234-2.2129-7.7148-5.7823-9.4629-7.8614
		c-3.7031-4.4082-5.7358-8.0801-10.1235-10.8994c-4.3858-2.8203-20.5332-13.1992-20.5332-13.1992
		c-0.8135-0.5234-1.8867-0.3076-2.3975,0.4863l-6.8808,10.7051c-0.5108,0.7949-0.2627,1.8613,0.5507,2.3848
		c0,0,7.5303,4.8408,13.7041,8.8086C220.7022,42.3795,224.3936,39.7174,228.5772,39.7174z"/>
	<path d="M270.8765,117.1334c4.0312,0,7.5019-3.0429,7.9453-7.1425c0.4726-4.3916-2.7051-8.3369-7.0938-8.8106v-0.0019
		c-0.5937-0.041-10.3418-1.4639-19.1054-7.1768c-4.4043-2.8476-8.5567-6.6631-11.6504-11.8818
		c-3.0825-5.2364-5.2339-11.9492-5.2486-21.2383c0-3.0508,0.2383-6.374,0.7754-9.9893c0.6475-4.3681-2.3691-8.4375-6.7382-9.0869
		c-4.3711-0.6494-8.4395,2.3692-9.0879,6.7373c-0.6446,4.3399-0.9512,8.4492-0.9512,12.3389
		c-0.0195,12.2119,3.0859,22.3008,7.9297,30.1289c7.2832,11.791,17.9614,18.2324,26.5239,21.752
		c8.6074,3.5253,15.3379,4.2626,15.8359,4.3242C270.3023,117.1178,270.5913,117.1334,270.8765,117.1334z"/>
	<path d="M290.6753,223.1002c-12.6894-7.456-19.6094-14.9619-23.5273-21.5761c-3.8946-6.6319-4.9786-12.5948-5-17.8145
		c-0.0039-2.7383,0.33-5.2451,0.7793-7.3652c2.4863-1.419,4.9882-3.586,7.4609-6.7442
		c12.416-18.6015,17.0918-30.9589,20.2168-52.0195c2.1816-15.3281-6.7246-25.0898-15.2949-27.082
		c-5.0215-1.167-10.1055,1.4072-13.8555,5.7822c5.7051,2.2627,10.3672,2.8984,10.4297,2.9043
		c5.5351,0.5967,9.5137,5.5371,8.9277,11.0186c-0.5527,5.0918-4.8203,8.9296-9.9336,8.9296c-0.3613,0-0.7207-0.0195-1.0859-0.0605
		c-1.8379-0.2207-8.0918-1.1475-15.832-4.2441c-3.4922,12.4697-8.0157,27.7451-15.733,39.5
		c-3.8574,1.1318-9.0244,2.9843-14.4824,5.9345c-5.3242,2.9219-11.0302,6.9619-15.7031,12.9619
		c-4.6787,5.9366-8.0469,14.1446-7.9922,23.3799c0,6.7676,1.6777,13.8955,4.9981,21.2774
		c3.3281,7.3965,8.288,15.1201,15.1611,23.455c2.4717,2.9961,6.0469,4.5469,9.6494,4.5469c2.7998,0,5.6162-0.9365,7.9453-2.8574
		c5.3247-4.3926,6.0806-12.2715,1.6885-17.5967c-5.7939-7.0176-9.4854-12.9873-11.6397-17.7929
		c-2.163-4.8233-2.8007-8.4092-2.8007-11.0323c0.0547-3.5576,0.9824-5.6885,2.749-8.0654c1.9951-2.6807,5.6142-5.2178,9.4043-7.1064
		c-0.0293,0.748-0.0547,1.5009-0.0576,2.2763c-0.0235,8.9444,2.0937,19.7676,8.4751,30.5313
		c6.3574,10.7802,16.7871,21.2812,32.4062,30.4238c1.9844,1.166,4.1621,1.7197,6.3106,1.7207c4.289,0,8.4648-2.2109,10.7929-6.1787
		C298.6265,234.2526,296.6304,226.5934,290.6753,223.1002z"/>
	<path d="M115.9785,90.901c0,0-0.0166-1.0449-0.0166-1.2949c0,0,0.0166-1.6055-0.872-1.6055h-3.6143
		c-0.8887,0-0.8691,1.6055-0.8691,1.6055c-0.003,0.25-0.0196,1.2949-0.0196,1.2949l-0.0195,1.0391
		c0,0-0.4434,11.6533-1.6768,15.6221c-1.7129,5.5224-3.7138,9.2334-3.7138,14.4716c0,5.2364,0,24.5157,0,24.5157
		c0,0.9726,0.7675,1.7617,1.7158,1.7617h12.7803c0.9482,0,1.7129-0.7891,1.7129-1.7617c0,0,0-19.2793,0-24.5157
		c0-5.2382-1.9981-8.9492-3.711-14.4716C116.4443,103.5934,116,91.9401,116,91.9401L115.9785,90.901z"/>
	<path d="M140.6455,90.901c0,0-0.0166-1.0449-0.0166-1.2949c0,0,0.0166-1.6055-0.8721-1.6055h-3.6142
		c-0.8887,0-0.8692,1.6055-0.8692,1.6055c-0.0029,0.25-0.0195,1.2949-0.0195,1.2949l-0.0195,1.0391
		c0,0-0.4434,11.6533-1.6768,15.6221c-1.7129,5.5224-3.7138,9.2334-3.7138,14.4716c0,5.2364,0,24.5157,0,24.5157
		c0,0.9726,0.7675,1.7617,1.7158,1.7617h12.7803c0.9482,0,1.7128-0.7891,1.7128-1.7617c0,0,0-19.2793,0-24.5157
		c0-5.2382-1.998-8.9492-3.7109-14.4716c-1.2305-3.9688-1.6748-15.6221-1.6748-15.6221L140.6455,90.901z"/>
	<path d="M168.6455,90.901c0,0-0.0166-1.0449-0.0166-1.2949c0,0,0.0166-1.6055-0.8721-1.6055h-3.6142
		c-0.8887,0-0.8692,1.6055-0.8692,1.6055c-0.0029,0.25-0.0195,1.2949-0.0195,1.2949l-0.0195,1.0391
		c0,0-0.4434,11.6533-1.6768,15.6221c-1.7129,5.5224-3.7138,9.2334-3.7138,14.4716c0,5.2364,0,24.5157,0,24.5157
		c0,0.9726,0.7675,1.7617,1.7158,1.7617h12.7803c0.9482,0,1.7128-0.7891,1.7128-1.7617c0,0,0-19.2793,0-24.5157
		c0-5.2382-1.998-8.9492-3.7109-14.4716c-1.2305-3.9688-1.6748-15.6221-1.6748-15.6221L168.6455,90.901z"/>
	<path d="M184.2266,148.3112h12.7802c0.9483,0,1.7129-0.7891,1.7129-1.7617c0,0,0-19.2793,0-24.5157
		c0-5.2382-1.998-8.9492-3.7109-14.4716c-1.2305-3.9688-1.6748-15.6221-1.6748-15.6221l-0.0215-1.0391
		c0,0-0.0166-1.0449-0.0166-1.2949c0,0,0.0166-1.6055-0.8721-1.6055h-3.6142c-0.8887,0-0.8692,1.6055-0.8692,1.6055
		c-0.0029,0.25-0.0195,1.2949-0.0195,1.2949l-0.0195,1.0391c0,0-0.4434,11.6533-1.6768,15.6221
		c-1.7129,5.5224-3.7138,9.2334-3.7138,14.4716c0,5.2364,0,24.5157,0,24.5157
		C182.5108,147.5221,183.2783,148.3112,184.2266,148.3112z"/>
	<path d="M197.0088,241.0514c0,0-19.2793,0-24.5156,0c-5.2383,0-8.9492,1.9981-14.4717,3.711
		c-3.9688,1.2304-15.6221,1.6748-15.6221,1.6748l-1.039,0.0214c0,0-1.045,0.0166-1.295,0.0166c0,0-1.6054-0.0166-1.6054,0.8721
		v3.6143c0,0.8886,1.6054,0.8691,1.6054,0.8691c0.25,0.0029,1.295,0.0195,1.295,0.0195l1.039,0.0196
		c0,0,11.6533,0.4433,15.6221,1.6767c5.5225,1.7129,9.2334,3.7139,14.4717,3.7139c5.2363,0,24.5156,0,24.5156,0
		c0.9727,0,1.7617-0.7676,1.7617-1.7158v-12.7803C198.7705,241.8161,197.9815,241.0514,197.0088,241.0514z"/>
	<rect x="96.0186" y="155.5504" width="109.666" height="4.6661"/>
	<rect y="186.5504" width="55.6846" height="4.6661"/>
	<rect x="277.6851" y="186.5504" width="54" height="4.6661"/>
	<rect x="96.6846" y="186.5504" width="92" height="4.6661"/>
</g>
</svg>
