<?xml version="1.0" encoding="UTF-8" standalone="no"?> <svg id="Layer_1" data-name="Layer 1" xmlns="http://www.w3.org/2000/svg" viewBox="0 0 128 128"><path d="M122.54734,51.48544H58.00873a2.96726,2.96726,0,0,0-2.96725,2.9673V97.89823a2.96726,2.96726,0,0,0,2.96725,2.9673H90.27806V114.4564a2.22547,2.22547,0,0,0,3.79628,1.57648l15.22207-15.16735h13.25093a2.96727,2.96727,0,0,0,2.9673-2.9673V54.45274A2.96727,2.96727,0,0,0,122.54734,51.48544Zm-13.59488,25.391-5.51087,13.49065A4.81509,4.81509,0,0,1,98.98,93.36492H92.12014a15.70614,15.70614,0,0,1-6.722-1.44324,16.32684,16.32684,0,0,0-5.96624-1.537v.776a1.92217,1.92217,0,0,1-1.92223,1.92212H73.17159a1.931,1.931,0,0,1-1.93107-1.93095V71.48021a1.931,1.931,0,0,1,1.93107-1.931h4.32928a1.931,1.931,0,0,1,1.93106,1.931v1.22567a8.684,8.684,0,0,0,4.1177-3.21836,11.091,11.091,0,0,1,3.7562-3.30654,10.188,10.188,0,0,0,4.84956-5.2904,2.75127,2.75127,0,0,1,2.51287-1.90453c1.70177,0,3.00678,1.79871,2.707,3.77385a11.46159,11.46159,0,0,1-.93464,3.20949,36.62476,36.62476,0,0,1-2.557,4.25877h10.60306A4.824,4.824,0,0,1,108.95246,76.87643Z"/><path d="M72.95852,14.281a2.96731,2.96731,0,0,0-2.96731-2.9673H5.45261A2.9673,2.9673,0,0,0,2.48536,14.281V57.72649a2.96725,2.96725,0,0,0,2.96725,2.96725h13.251l15.22207,15.1674a2.22548,2.22548,0,0,0,3.79628-1.57647V60.69374h8.46447V50.02488A7.34861,7.34861,0,0,1,53.535,42.67626h19.4235ZM16.58,43.69818a7.69449,7.69449,0,1,1,7.69449-7.69448A7.69445,7.69445,0,0,1,16.58,43.69818Zm21.142,0a7.69449,7.69449,0,1,1,7.69449-7.69448A7.69447,7.69447,0,0,1,37.72194,43.69818Z"/></svg>