<?xml version="1.0" encoding="utf-8"?>
<!-- Generator: Adobe Illustrator 23.0.2, SVG Export Plug-In . SVG Version: 6.00 Build 0)  -->
<svg version="1.1" id="Layer_1" xmlns="http://www.w3.org/2000/svg" xmlns:xlink="http://www.w3.org/1999/xlink" x="0px" y="0px"
	 viewBox="0 0 148.0759 246.4831" enable-background="new 0 0 148.0759 246.4831" xml:space="preserve">
<g>
	<path d="M83.9571,144.4821h1.3037c3.3134,0,6-2.6865,6-6V75.8337c-2.4317,0.5771-4.8702,1.0742-7.3037,1.478V144.4821z"/>
	<path d="M22.8985,129.0348c0,4.8282,0.1484,10.0142,0.4257,15.4253c0.1446,0.0103,0.2891,0.022,0.4366,0.022h1.3037v-44.1855
		C23.7783,107.3566,22.8809,116.7057,22.8985,129.0348z"/>
	<path d="M59.9307,57.5988h13.8974c0.1319-0.0044,0.3536-0.0181,0.6368-0.04c0.8418-0.065,2.247-0.2012,4.0849-0.458
		c2.9717-0.4185,7.4912-1.2413,12.711-2.7867v-1.832c0-3.3135-2.6866-6-6-6h-9.6407
		C72.1377,52.0402,66.5235,56.1291,59.9307,57.5988z"/>
	<path d="M34.8164,57.6169c0.1338-0.0113,0.2539-0.0181,0.377-0.0181h13.8984c-6.5928-1.4697-12.207-5.5586-15.6904-11.1167h-9.6406
		c-3.3135,0-6,2.6865-6,6v8.5c0,1.3896,0.4765,2.6655,1.2705,3.6826c2.0322-1.9468,4.2158-3.5249,6.5156-4.665
		C29.5567,57.9762,33.0762,57.6369,34.8164,57.6169z"/>
	<path d="M54.5117,55.8005c9.7901,0,18.1133-6.2525,21.2071-14.9805c1.1035-0.1528,2.0097-0.3233,2.6806-0.5117
		c0.1504-0.042,0.3086-0.084,0.4346-0.128c4.2295-1.4809,2.25-4.6938,0.5684-6.583c-0.7803-0.8774-1.4971-1.4702-1.4971-1.4702
		c0-3.5835-0.332-6.7192-0.8994-9.4917C72.7149,1.6838,54.3653,2.3932,54.3653,2.3932S35.3574,1.6569,31.5098,23.7726
		c-0.4326,2.4888-0.6836,5.2525-0.6836,8.3545c0,0-0.5518,0.4566-1.2148,1.1607c-1.7188,1.8271-4.1846,5.3271,0.2851,6.8925
		c0.2129,0.0743,0.4688,0.1455,0.75,0.2149c0.6983,0.1719,1.6025,0.3276,2.6719,0.4678
		C36.4248,49.5685,44.7393,55.8005,54.5117,55.8005z M35.9209,27.8503c1.584,4.0327,9.4131,7.0996,18.8565,7.0996
		c9.4433,0,17.2724-3.0669,18.8564-7.0996c0.1924,0.4878,0.3106,0.9873,0.3106,1.5c0,4.749-8.5811,8.5996-19.167,8.5996
		c-10.586,0-19.166-3.8506-19.166-8.5996C35.6114,28.8376,35.7295,28.3381,35.9209,27.8503z"/>
	<path d="M142.6426,41.4245c2.3096-3.4473,1.6084-8.1397-1.7119-10.7398c-1.1973-0.9384-2.5791-1.4721-3.9873-1.6381l-3.0449-6.6153
		c3.4287-3.8847,4.458-9.5722,2.1504-14.582c-2.3057-5.0117-7.2959-7.9277-12.4776-7.8477l3.5127,7.6289
		c1.2578,2.7325,0.0625,5.9688-2.6709,7.2266c-2.7324,1.2578-5.9668,0.0625-7.2256-2.6699l-3.5127-7.6289
		c-3.4297,3.8847-4.458,9.5703-2.1504,14.582c2.3057,5.0098,7.295,7.9258,12.4776,7.8457l3.5342,7.6768
		c-10.1416,11.6347-23.0938,18.018-33.9903,21.4653c-5.8232,1.8442-11.001,2.832-14.6631,3.3496
		c-1.831,0.2564-3.2802,0.3989-4.2412,0.4746c-0.3008,0.0225-0.5361,0.0376-0.7373,0.0503
		c-0.0263-0.0005-0.0508-0.0039-0.0762-0.0039h-2.208l1.7549,0.1211c0.002,0.0063-0.2363,3.4165-0.2344,8.3569
		c-0.0576,8.9981,0.9366,23.1822,5.0293,29.438c1.0469,1.6221,2.1446,2.6275,3.3868,3.1182V75.2565
		c4.3379-0.6318,10.1904-1.7798,16.8193-3.8725c11.1572-3.5347,24.6504-9.8262,36.3525-21.0997l2.9512,6.4107
		c1.2578,2.7344,4.4932,3.9297,7.2256,2.6719c2.7344-1.2598,3.9277-4.4942,2.6699-7.2266L142.6426,41.4245z"/>
	<path d="M21.0674,147.257c-0.3906-6.6494-0.5693-12.7056-0.5693-18.2197c-0.0332-24.2188,3.498-37.8238,6.9668-44.9224v16.917
		c1.2392-0.4902,2.3359-1.4936,3.3828-3.1152c1.3222-2.0684,2.3818-5.0474,3.1387-8.4165
		c1.5292-6.7432,1.8964-15.0025,1.8916-21.0249c0-4.876-0.2266-8.2618-0.2325-8.3565c0-0.001,0-0.0019,0-0.0019s0,0.0009,0,0.0019
		l1.75-0.1201h-2.2021c-0.1172,0-0.2315,0.0122-0.3477,0.0176c-1.8017,0.0215-4.8105,0.4082-8.2334,2.1338
		c-5.3779,2.6674-11.1777,8.5014-15.2343,18.8413c-4.1075,10.3803-6.8663,25.3857-6.879,48.0459
		c0,5.8554,0.1875,12.2231,0.5977,19.1567c0.1699,2.9082,1.874,5.3599,4.2783,6.6201v2.6241v3.0439H0v49h24v-49h-9.375v-2.4746
		v-2.44C18.4922,154.8102,21.3057,151.3,21.0674,147.257z"/>
	<path d="M27.4649,131.1486v102.9712c0,6.8301,5.5371,12.3633,12.3632,12.3633c6.8282,0,12.3653-5.5332,12.3653-12.3633v-82.1377
		h4.6347v82.1377c0,6.8301,5.5372,12.3633,12.3633,12.3633c6.8282,0,12.3653-5.5332,12.3653-12.3633V131.1486H27.4649z"/>
	<path d="M81.5567,128.6486v-23.4683c-2.9229-0.6059-5.1787-2.603-6.7618-5.1171c-1.7041-2.688-2.8398-6.044-3.666-9.6812
		c-1.6386-7.2686-1.9853-15.7187-1.9892-21.9053c0-4.4804,0.1894-7.7549,0.2353-8.478H39.6455
		c0.045,0.7217,0.2315,3.9961,0.2334,8.4766c-0.0576,9.3139-0.6679,23.5698-5.6572,31.5879
		c-1.5811,2.5131-3.8359,4.5107-6.7568,5.1186v23.4668H81.5567z"/>
</g>
</svg>
