<?xml version="1.0" encoding="utf-8"?>
<!-- Generator: Adobe Illustrator 23.0.2, SVG Export Plug-In . SVG Version: 6.00 Build 0)  -->
<svg version="1.1" id="Layer_1" xmlns="http://www.w3.org/2000/svg" xmlns:xlink="http://www.w3.org/1999/xlink" x="0px" y="0px"
	 viewBox="0 0 233.0454 273.1021" enable-background="new 0 0 233.0454 273.1021" xml:space="preserve">
<g>
	<path d="M139.7297,42.7693c0-12.4268-10.3888-22.5-23.207-22.5c-12.8163,0-23.2071,10.0732-23.2071,22.5
		c0,12.4267,10.3908,22.5,23.2071,22.5C129.3409,65.2693,139.7297,55.196,139.7297,42.7693z M103.3792,51.4753h26.2866
		c-2.7239,4.412-7.5888,7.3682-13.1432,7.3682C110.968,58.8434,106.1031,55.8872,103.3792,51.4753z"/>
	<path d="M144.4185,124.3615V91.5987c3.3226,4.5885,7.3377,13.937,8.7869,32.7628H169.23
		c-1.612-22.6424-6.9303-38.3322-15.9086-46.8145c-6.9106-6.5291-13.656-6.643-15.7518-6.4941
		c-0.3677-0.0504-0.7405-0.0854-1.1225-0.0854h-9.2089c1.3411,7.6188,4.6994,30.447-2.2957,34.9623
		c-0.426,0.2751-0.8165,0.5264-1.2015,0.7737l-3.192-23.5157c-1.2953,0.4861-2.6577,0.7405-4.0207,0.7405h-0.0059h-0.0019
		c-1.3645,0.0009-2.7291-0.2531-4.0266-0.7394l-3.1909,23.5145c-0.3853-0.2473-0.776-0.4985-1.2023-0.7736
		c-6.9919-4.5153-3.6357-27.3434-2.2955-34.9623h-9.2071c-0.0609,0-0.1199,0.0075-0.1805,0.0089L64.7719,55.2896l-9.2094-34.1969
		L51.0008,2.3131c-0.3909-1.6143-2.0619-2.6123-3.7208-2.2324c-1.6639,0.3799-2.6944,1.9951-2.3026,3.6074l3.8284,15.7606
		c-4.6648,0.7115-9.8956,3.1404-9.2192,5.6515l10.1521,37.7002c0.5942,2.208,2.1323,4.0645,4.2274,5.1025l34.6607,17.1813v39.2772
		H144.4185z"/>
	<path d="M122.2217,78.5103l-1.9005-7.5h-3.7989h-3.8007l-1.9005,7.5l0.2915,0.4601c1.5648,1.303,3.4799,1.9561,5.4077,1.9579
		c1.9281-0.0018,3.8464-0.6565,5.4124-1.9622L122.2217,78.5103z"/>
	<path d="M65.2665,185.3641c4.5511-3.68,10.3373-5.8903,16.6324-5.8903c9.4877,0,17.8223,5.0146,22.5045,12.5297
		c3.6353-1.8784,7.7543-2.9463,12.1205-2.9463s8.4853,1.0679,12.1205,2.9463c4.6822-7.5151,13.0168-12.5297,22.5045-12.5297
		c6.2939,0,12.079,2.2094,16.6297,5.8881l2.8087-45.5004h8.4043v-11.5H54.0533v11.5h8.4043L65.2665,185.3641z"/>
	<path d="M71.6297,225.9914c3.0796,1.5831,6.5683,2.4824,10.269,2.4824c3.7012,0,7.1899-0.8991,10.2695-2.4821
		c-1.378-3.2042-2.1443-6.7311-2.1443-10.4345c0-8.8201,4.3352-16.6423,10.9824-21.4619
		c-3.9718-6.3759-11.0417-10.6215-19.1076-10.6215c-8.0647,0-15.1349,4.2457-19.1072,10.6216
		c6.6472,4.8196,10.9824,12.6417,10.9824,21.4618C73.7739,219.2604,73.0077,222.7872,71.6297,225.9914z"/>
	<path d="M151.1487,183.4737c-8.0647,0-15.1349,4.2457-19.1072,10.6216c6.6472,4.8196,10.9824,12.6417,10.9824,21.4618
		c0,3.7033-0.7662,7.2301-2.1442,10.4343c3.0796,1.5831,6.5683,2.4824,10.269,2.4824c3.7012,0,7.1899-0.8991,10.2695-2.4821
		c-1.378-3.2042-2.1443-6.7311-2.1443-10.4345c0-8.8201,4.3352-16.6423,10.9824-21.4619
		C166.2845,187.7194,159.2147,183.4737,151.1487,183.4737z"/>
	<path d="M33.6014,233.422h27.3448c5.3651-4.1123,8.8271-10.5828,8.8271-17.8649c0-12.4272-10.0723-22.5-22.5-22.5
		c-12.4258,0-22.5,10.0728-22.5,22.5C24.7734,222.8392,28.2362,229.3097,33.6014,233.422z"/>
	<path d="M139.0234,215.5571c0-12.4272-10.0723-22.5-22.5-22.5c-12.4258,0-22.5,10.0728-22.5,22.5
		c0,7.2821,3.4628,13.7526,8.828,17.8649h27.3448C135.5613,229.3097,139.0234,222.8392,139.0234,215.5571z"/>
	<path d="M163.2734,215.5571c0,7.2821,3.4628,13.7526,8.828,17.8649h27.3448c5.3651-4.1123,8.8271-10.5828,8.8271-17.8649
		c0-12.4272-10.0723-22.5-22.5-22.5C173.3477,193.0571,163.2734,203.1299,163.2734,215.5571z"/>
	<path d="M219.4829,243.6915c-5.6265-5.2866-11.125-6.1855-13.9326-6.2466c-0.1528-0.0093-0.3042-0.0234-0.4595-0.0234h-38.6348
		c-0.1646,0-0.3247,0.0146-0.4868,0.0249c-2.8145,0.0659-8.2964,0.9736-13.9063,6.2451c-0.3105,0.292-0.6133,0.6011-0.915,0.9106
		c-0.3018-0.3096-0.6045-0.6187-0.915-0.9106c-5.627-5.2871-11.125-6.1855-13.9326-6.2466
		c-0.1528-0.0093-0.3047-0.0234-0.4595-0.0234H97.2061c-0.1646,0-0.3252,0.0146-0.4868,0.0249
		c-2.8149,0.0664-8.2964,0.9741-13.9063,6.2451c-0.3105,0.292-0.6133,0.6011-0.915,0.9106
		c-0.3018-0.3096-0.6045-0.6187-0.915-0.9106c-5.627-5.2871-11.125-6.1855-13.9326-6.2466
		c-0.1528-0.0093-0.3047-0.0234-0.4595-0.0234H27.9561c-0.1641,0-0.3242,0.0146-0.4858,0.0249
		c-2.8145,0.0654-8.2954,0.9722-13.9072,6.2451C7.1567,249.7106,2.6313,259.5479,0,273.1021h16.3735
		c1.127-4.9102,2.4668-8.7036,3.854-11.5884v11.5884h192.5918v-11.5859c1.3867,2.8848,2.7261,6.6772,3.853,11.5859h16.373
		C230.4146,259.5484,225.8892,249.711,219.4829,243.6915z"/>
</g>
</svg>
