<?xml version="1.0" encoding="UTF-8" standalone="no"?>
<svg
   viewBox="0 0 889.77456 628.76"
   version="1.1"
   id="svg22"
   width="889.77454"
   height="628.76001"
   xmlns="http://www.w3.org/2000/svg"
   xmlns:svg="http://www.w3.org/2000/svg">
  <defs
     id="defs1">
    <style
       id="style1">
            .cls-1 {
                fill: #8ba829;
            }

            .cls-2 {
                fill: #ce4e40;
            }

            .cls-3 {
                fill: #265b93;
            }

            .cls-4 {
                fill: #cf4e40;
            }

            .cls-5 {
                fill: #275b93;
            }

            .cls-6 {
                fill: #43699e;
            }

            .cls-7 {
                fill: #d66956;
            }

            .cls-8 {
                fill: #9db244;
            }

            .cls-9 {
                fill: #a5b751;
            }

            .cls-10 {
                fill: #d25c49;
            }

            .cls-11 {
                fill: #8ba728;
            }

            .cls-12 {
                fill: #c6cf90;
            }

            .cls-13 {
                fill: #95ad36;
            }

            .cls-14 {
                fill: #adbc61;
            }

            .cls-15 {
                fill: #687fae;
            }

            .cls-16 {
                fill: #93a0c4;
            }

            .cls-17 {
                fill: #dc806b;
            }

            .cls-18 {
                fill: #305f96;
            }

            .cls-19 {
                fill: #b6c271;
            }

            .cls-20 {
                fill: #285b93;
            }
        </style>
  </defs>
  <g
     id="Ebene_2"
     data-name="Ebene 2">
    <g
       id="Ebene_1-2"
       data-name="Ebene 1">
      <path
         class="cls-1"
         d="m 591.83,426.58 c 7.11,-12 13.09,-24.61 19.22,-37.12 13.1,-26.7 26,-53.5 39,-80.24 4,-8.18 10.84,-12.14 19.25,-11.35 7.73,0.74 13.14,5.64 15.85,14.34 0.08,0.26 0.43,0.45 0.66,0.67 v 8 c -3.22,11.27 -9.71,21 -15,31.28 -8.27,16.09 -16.62,32.15 -25.27,48 -11.11,20.42 -22,40.93 -33.8,61 -6.38,11 -12.86,21.92 -19.26,32.9 -12.83,19.94 -25.48,39.86 -39.84,58.72 -10,13.16 -20.47,25.9 -32.23,37.45 -12.12,11.9 -25.16,22.79 -40.59,30.45 a 75.48,75.48 0 0 1 -27,8.08 h -21 c -20.6,-2.88 -37,-13.73 -52.35,-27 -13.46,-11.6 -24.66,-25.16 -35.59,-39 -1.39,-1.76 -3.39,-3.31 -3.24,-6 -18.15,-25.33 -34.07,-52.07 -49.67,-79 a 30.34,30.34 0 0 1 -8.33,-15.35 c -12.23,-24 -24.71,-47.81 -36.65,-71.93 -27.71,-56 -53.93,-112.68 -82.07,-168.45 -6.88,-13.64 -14.16,-27.08 -21.25,-40.61 -3.57,-2.44 -4.44,-6.36 -5.6,-10.13 a 712.18,712.18 0 0 0 -42,-70.7 C 81.12,79.88 65.9,60.13 47.44,43.07 L 42,38 c -0.3,-1 0.28,-1.3 1,-1.51 5.56,1.56 9.2,5.92 13.11,9.61 18.49,17.44 34.2,37.28 48.68,58.07 13.13,18.85 25.63,38.14 37.06,58.09 1.92,3.54 4.13,6.9 6.22,10.34 14.35,25 28.15,50.21 41.73,75.58 q 11.19,20.9 22.06,42 31.33,60.77 63.66,121 c 5.84,10.84 11.94,21.54 18.07,32.21 q 4.54,8.07 9.19,16.06 c 19.06,31.5 38.32,62.87 61.89,91.3 13.11,15.82 27.33,30.52 44.83,41.62 15.4,9.77 31.71,13.82 49.41,6.82 11.3,-4.46 21,-11.46 29.89,-19.65 20,-18.47 35.86,-40.24 50.55,-62.93 11.85,-18.31 23.09,-37 33.34,-56.28 q 8.17,-14.38 15.64,-29.14 c 0.88,-1.73 1.43,-3.77 3.5,-4.61 z"
         id="path1" />
      <path
         class="cls-2"
         d="m 301.69,459.43 a 133.15,133.15 0 0 1 -9.1,-15.85 c -0.22,-5.19 3.11,-9 5.3,-13.21 11.29,-21.51 22.22,-43.2 32.52,-65.2 5.15,-11 10.66,-21.83 15.95,-32.76 11,-22.76 21.93,-45.57 32.9,-68.36 11,-22.94 22.54,-45.65 33.94,-68.42 q 6.58,-13.14 13.71,-26 4.69,-8.47 9.34,-17 c 1.18,-2.19 2.3,-4.44 4.46,-5.88 10.63,-17.75 20.76,-35.69 32.29,-52.82 15.36,-22.85 31.75,-44.84 52.23,-63.46 15.23,-13.84 32.1,-24.8 52.51,-29.4 0.8,-0.18 1.67,-0.18 2.11,-1.07 h 27 c 24.9,3.89 44,18.19 61.84,34.64 3.53,3.25 6.7,6.92 10.26,10.14 3.56,3.22 6.2,7.22 6.88,12.2 v 9 c -0.95,0.34 -0.92,1.28 -1.26,2 C 678.39,81.29 663.09,83.65 653,72.9 648,67.57 643.07,62.12 637.73,57.12 627.97,47.97 617.4,39.93 604.44,35.67 590.26,31.02 577.17,34.32 564.7,41.35 549.38,50 537,62 525.38,74.94 c -21.12,23.48 -38.63,49.59 -55.3,76.3 -4.65,7.46 -9.57,14.79 -13.46,22.72 -0.78,5.12 -4.46,8.79 -6.7,13.17 -1.95,3.82 -4.13,7.56 -6.35,11.25 -17.76,31.85 -34.95,64 -51.85,96.3 -16.9,32.3 -33.72,65.04 -51.09,97.32 -11.53,21.39 -23.06,42.79 -35.32,63.78 -0.88,1.47 -1.31,3.52 -3.62,3.65 z"
         id="path2" />
      <path
         class="cls-3"
         d="m 610.9,460.71 c 9.61,15.16 19,30.43 28.87,45.44 a 430.17,430.17 0 0 0 39.67,51.93 105.88,105.88 0 0 1 6.35,8.7 v 11 c -3.61,7.45 -8.68,12.94 -17.68,13.17 -6.71,0.17 -11.69,-2.92 -15.92,-7.9 -23.51,-27.63 -42.76,-58.15 -60.73,-89.53 z"
         id="path3" />
      <path
         class="cls-4"
         d="m 282.68,462.47 8.32,15.35 c -17.23,28.27 -35.09,56.11 -56.08,81.79 -14.46,17.7 -30.12,34.2 -49.52,46.7 -30.36,19.56 -59.23,18.51 -88.46,-2.95 -22,-16.19 -38.82,-37.21 -54.54,-59.18 a 420.57,420.57 0 0 1 -24.6,-38.09 1.09,1.09 0 0 1 0.26,-1.58 c 2,0.66 2.52,2.59 3.5,4.06 15.44,23.36 31.8,46.03 51.44,66.13 14.72,15.09 30.61,28.6 51.31,35.16 15.72,5 30.54,2.76 44.86,-4.66 19.63,-10.17 34.71,-25.61 48.51,-42.41 24.71,-30.08 44.3,-63.52 63.21,-97.39 0.52,-1.01 1.18,-1.96 1.79,-2.93 z"
         id="path4" />
      <path
         class="cls-5"
         d="m 137.11,171.35 c 2.39,3.09 3.92,6.65 5.6,10.13 -14.47,24.29 -27.72,49.26 -40.87,74.28 Q 63.22,329.28 24.79,402.9 c -0.54,1 -1.23,2 -1.85,2.92 -1.05,0.14 -1.57,-0.19 -1.17,-1.33 Q 37.42,372.21 53.06,339.93 C 74.53,295.69 95.51,251.2 118,207.44 c 6.17,-12.12 12.72,-24.06 19.11,-36.09 z"
         id="path5" />
      <path
         class="cls-6"
         d="m 21.77,404.49 1.17,1.33 a 115.79,115.79 0 0 1 -8.84,16.23 c -0.67,-0.1 -0.72,-0.64 -0.82,-1.14 a 134.17,134.17 0 0 1 8.49,-16.42 z"
         id="path6" />
      <path
         class="cls-7"
         d="m 18.07,504.51 -0.26,1.58 c -2.71,-2.8 -4.17,-6.27 -5.31,-9.93 2.98,2.05 4.56,5.01 5.57,8.35 z"
         id="path7" />
      <path
         class="cls-8"
         d="m 39.15,33.89 a 10.74,10.74 0 0 1 4,3 L 42,38 38,35 c -0.2,-1 0.09,-1.45 1.15,-1.11 z"
         id="path8" />
      <path
         class="cls-9"
         d="M 39.15,33.89 38,35 34,32 a 1.73,1.73 0 0 1 1,-1 9.9,9.9 0 0 1 4.15,2.89 z"
         id="path9" />
      <path
         class="cls-10"
         d="m 7.8,488.92 a 5,5 0 0 1 -2,-4 c 1.85,0.83 2.17,2.47 2.85,3.83 -0.17,0.57 -0.45,0.66 -0.85,0.17 z"
         id="path10" />
      <path
         class="cls-11"
         d="m 35,31 -1,1 C 32.65,31.43 31.37,30.78 31.16,29.09 A 6.1,6.1 0 0 1 35,31 Z"
         id="path11" />
      <path
         class="cls-12"
         d="m 0,17 c 2,0.21 4.2,-0.72 6,1 -2.14,0.31 -4.2,0.46 -6,-1 z"
         id="path12" />
      <path
         class="cls-13"
         d="m 20.07,23 c 2,0.31 3.86,0.72 4.69,2.88 C 22.9,25.43 21.1,24.85 20.07,23 Z"
         id="path13" />
      <path
         class="cls-14"
         d="m 26,26 c 1.92,0.17 3.74,0.47 3.9,3 -1.85,-0.37 -3.45,-1 -3.9,-3 z"
         id="path14" />
      <path
         class="cls-15"
         d="m 12.8,424.76 c -0.49,1.09 -0.53,2.5 -2.3,3 -0.54,-1.76 0.31,-2.91 1.41,-4 a 1.55,1.55 0 0 1 0.89,1 z"
         id="path15" />
      <path
         class="cls-16"
         d="m 3.23,441.22 c 0.32,-2.47 0.42,-3.69 2.12,-3.91 0.57,1.61 -0.51,2.27 -2.12,3.91 z"
         id="path16" />
      <path
         class="cls-17"
         d="m 7.8,488.92 a 1.39,1.39 0 0 1 0.87,-0.17 c 0.88,1 2.29,1.83 1.68,3.9 A 4.14,4.14 0 0 1 7.8,488.92 Z"
         id="path17" />
      <path
         class="cls-18"
         d="m 12.8,424.76 -0.89,-1 c 0.46,-0.95 0.91,-1.9 1.37,-2.84 l 0.82,1.14 z"
         id="path18" />
      <path
         class="cls-19"
         d="m 8.89,18.62 c 1.37,0.51 3.07,0 4.15,1.37 -1.7,0.5 -3.22,0.48 -4.15,-1.37 z"
         id="path19" />
      <path
         class="cls-20"
         d="m 9.36,431.16 c -0.33,0.38 -0.69,1.16 -1.16,1.23 -0.63,0.11 -0.44,-0.59 -0.29,-1 0.21,-0.62 0.43,-1.29 1.29,-1.17 a 3.89,3.89 0 0 1 0.16,0.94 z"
         id="path20" />
      <path
         class="cls-3"
         d="m 442.66,198.06 a 231.81,231.81 0 0 1 14,-24.1 c 31.77,55.54 60.63,112.62 90.29,169.29 14.63,28 29.09,56 44.92,83.33 -5.34,11.82 -11.69,23.09 -18.16,34.3 -2.12,-0.06 -2.6,-1.89 -3.34,-3.28 -13.25,-24.81 -26.4,-49.67 -38.24,-75.2 -6.09,-13.13 -12.76,-26 -19,-39 -22.63,-47.11 -45.51,-94.1 -69.28,-140.65 -0.85,-1.5 -1.92,-2.87 -1.19,-4.69 z"
         id="path21" />
      <path
         class="cls-3"
         d="m 141.2,163.11 12.47,-22.17 c 12.62,-20.73 24.94,-41.66 39.48,-61.15 14.36,-19.25 29.58,-37.73 49,-52.25 15.51,-11.62 32.42,-19.75 52.33,-19.31 16.84,0.36 31.7,6.83 45.44,16.1 21.5,14.51 38.45,33.67 54.3,53.91 15.85,20.24 30,41.89 43.48,63.91 0.95,1.55 2,3 3,4.55 l -12.82,23.23 c -2.54,0.25 -2.77,-2 -3.58,-3.47 -12.83,-22.41 -25.85,-44.69 -40.54,-66 -11.38,-16.48 -23.72,-32.18 -38,-46.27 A 122.9,122.9 0 0 0 317.88,33.27 c -20.59,-11.16 -40.44,-8.7 -59.65,3.29 -21.22,13.24 -37.75,31.45 -53,51 -20.16,25.77 -37.45,53.44 -54.13,81.52 -1,1.65 -1.65,3.75 -4.06,4 z"
         id="path22" />
    </g>
  </g>
  <text
     xml:space="preserve"
     style="font-weight:bold;font-size:230.862px;font-family:Bahnschrift;-inkscape-font-specification:'Bahnschrift Bold';text-align:start;writing-mode:tb-rl;direction:ltr;text-orientation:upright;text-anchor:start;fill:#000000;stroke-width:1.2024"
     x="829.69177"
     y="-17.861877"
     id="text22"><tspan
       id="tspan22"
       x="829.69177"
       y="-17.861877"
       style="stroke-width:1.2024">EIT</tspan></text>
</svg>
